<?xml version="1.0" standalone="no"?>
<!DOCTYPE svg PUBLIC "-//W3C//DTD SVG 20010904//EN"
 "http://www.w3.org/TR/2001/REC-SVG-20010904/DTD/svg10.dtd">
<svg version="1.0" xmlns="http://www.w3.org/2000/svg"
 width="300.000000pt" height="300.000000pt" viewBox="0 0 300.000000 300.000000"
 preserveAspectRatio="xMidYMid meet">
<metadata>
Created by potrace 1.14, written by Peter Selinger 2001-2017
</metadata>
<g transform="translate(0.000000,300.000000) scale(0.100000,-0.100000)"
fill="#000000" stroke="none">
<path d="M0 1500 l0 -1500 1500 0 1500 0 0 1500 0 1500 -1500 0 -1500 0 0
-1500z m1485 391 c58 -25 108 -71 126 -112 l11 -29 40 36 c135 121 302 163
460 114 78 -24 130 -70 167 -149 l26 -56 3 -481 3 -480 -22 -20 c-19 -17 -36
-19 -149 -19 -112 0 -131 2 -149 19 -21 19 -21 25 -21 425 0 390 -1 407 -20
439 -21 35 -72 62 -115 62 -37 0 -95 -27 -128 -58 -58 -54 -57 -49 -57 -465 0
-459 13 -420 -142 -425 -55 -2 -115 -1 -133 2 -67 13 -65 -3 -65 424 0 213 -5
405 -10 427 -26 113 -164 126 -262 24 l-48 -49 0 -384 c0 -211 -3 -392 -6
-401 -13 -32 -59 -45 -168 -45 -115 0 -148 9 -165 47 -8 16 -11 164 -11 470 0
287 -4 477 -12 535 -10 75 -9 91 3 103 21 21 125 45 208 48 82 2 93 -5 112
-78 6 -22 13 -46 15 -53 3 -9 13 -3 29 16 36 43 129 102 194 124 78 25 217 21
286 -11z"/>
</g>
</svg>
