<?xml version="1.0" standalone="no"?>
<!DOCTYPE svg PUBLIC "-//W3C//DTD SVG 20010904//EN"
 "http://www.w3.org/TR/2001/REC-SVG-20010904/DTD/svg10.dtd">
<svg version="1.0" xmlns="http://www.w3.org/2000/svg"
 width="512.000000pt" height="512.000000pt" viewBox="0 0 512.000000 512.000000"
 preserveAspectRatio="xMidYMid meet">
<metadata>
Created by potrace 1.14, written by Peter Selinger 2001-2017
</metadata>
<g transform="translate(0.000000,512.000000) scale(0.100000,-0.100000)"
fill="#000000" stroke="none">
<path d="M2485 4630 c-550 -235 -1040 -443 -1090 -460 -159 -57 -407 -185
-443 -229 -43 -52 -56 -137 -29 -190 l15 -29 -179 -179 -179 -179 -31 13 c-83
35 -175 3 -229 -79 -98 -149 -200 -387 -249 -585 -31 -121 -35 -142 -47 -222
-4 -25 -9 -55 -11 -66 -9 -38 -10 -423 -1 -482 45 -300 107 -506 216 -718 53
-104 136 -242 181 -300 17 -22 34 -45 38 -50 33 -45 131 -153 193 -213 221
-215 484 -380 768 -482 62 -22 122 -42 134 -44 13 -3 59 -13 103 -24 44 -11
102 -23 128 -27 27 -3 58 -8 70 -10 33 -7 216 -18 287 -19 220 0 473 44 690
119 170 60 394 171 458 229 58 52 72 134 38 217 -6 12 39 63 171 196 163 163
181 178 199 167 50 -32 141 -22 192 21 49 41 166 258 227 419 l23 61 93 -2
c52 0 135 -2 184 -3 65 -1 102 3 130 14 55 23 517 483 551 548 56 109 36 240
-48 327 -60 61 -116 85 -203 85 -101 0 -143 -23 -263 -140 -55 -55 -117 -115
-137 -134 l-37 -35 15 30 c8 17 94 217 192 445 98 228 180 420 183 425 4 6 7
15 8 20 2 6 41 100 89 210 116 267 123 288 120 333 -5 59 -24 87 -143 208
l-110 111 -883 -884 c-486 -486 -885 -885 -886 -886 -1 -2 -5 -30 -9 -62 -39
-366 -290 -655 -654 -751 -98 -26 -310 -24 -415 5 -378 102 -639 439 -638 826
0 55 3 114 7 130 3 17 9 46 12 65 8 44 43 140 78 209 132 259 433 451 713 455
16 0 277 255 908 886 l886 886 -115 114 c-64 63 -128 120 -143 127 -77 33 -63
39 -1128 -417z"/>
<path d="M2975 3400 c-248 -247 -451 -454 -453 -460 -2 -5 1 -10 8 -10 16 0
99 -58 164 -114 54 -46 147 -162 176 -219 l14 -28 453 453 c249 249 453 457
453 463 0 10 -113 139 -180 205 -46 46 -175 160 -181 160 -3 0 -207 -202 -454
-450z"/>
<path d="M1988 2655 c-99 -29 -147 -57 -212 -121 -196 -194 -202 -496 -15
-695 60 -63 102 -92 184 -124 134 -53 302 -40 425 33 206 122 296 365 220 592
-84 249 -351 389 -602 315z"/>
</g>
</svg>
